<?xml version="1.0" standalone="no"?><!DOCTYPE svg PUBLIC "-//W3C//DTD SVG 1.1//EN" "http://www.w3.org/Graphics/SVG/1.1/DTD/svg11.dtd"><svg t="1533002426652" class="icon" style="" viewBox="0 0 1024 1024" version="1.1" xmlns="http://www.w3.org/2000/svg" p-id="1319" xmlns:xlink="http://www.w3.org/1999/xlink" width="16" height="16"><defs><style type="text/css"></style></defs><path d="M655.634847 900.20229h-427.022519c-64.286299 0-116.460687-52.174388-116.460686-116.460687v-543.483206a116.460687 116.460687 0 0 1 116.460686-116.460687h543.483206a116.460687 116.460687 0 0 1 116.460687 116.460687v465.842748l-232.921374 194.101145z m-310.561832-155.280916h155.280916a38.820229 38.820229 0 1 0 0-77.640458h-155.280916a38.820229 38.820229 0 1 0 0 77.640458z m310.561832-504.662977h-310.561832a38.820229 38.820229 0 0 0 0 77.640458h310.561832a38.820229 38.820229 0 1 0 0-77.640458z m0 194.101145h-310.561832a38.820229 38.820229 0 0 0 0 77.640458h310.561832a38.820229 38.820229 0 1 0 0-77.640458z m38.820229 194.101145c-42.857533 0-38.820229 34.782925-38.820229 77.640458v77.640458l155.280916-155.280916h-116.460687z" p-id="1320"></path></svg>