<?xml version="1.0" standalone="no"?><!DOCTYPE svg PUBLIC "-//W3C//DTD SVG 1.1//EN" "http://www.w3.org/Graphics/SVG/1.1/DTD/svg11.dtd"><svg t="1532242446051" class="icon" style="" viewBox="0 0 1024 1024" version="1.1" xmlns="http://www.w3.org/2000/svg" p-id="1057" xmlns:xlink="http://www.w3.org/1999/xlink" width="50" height="50"><defs><style type="text/css"></style></defs><path d="M1024 825.6V0H147.2c-19.2 0-32 0-44.8 6.4C38.4 25.6 0 76.8 0 140.8V870.4c0 44.8 19.2 96 57.6 128 32 12.8 64 25.6 96 25.6H1024v-83.2c-19.2-12.8-38.4-32-38.4-64 0-19.2 19.2-44.8 38.4-51.2z m-89.6 128H147.2c-38.4 0-70.4-32-70.4-70.4 0-38.4 32-70.4 70.4-70.4h787.2c-12.8 19.2-19.2 44.8-19.2 70.4 0 25.6 6.4 51.2 19.2 70.4z m19.2-211.2H192c-38.4 0-83.2 0-115.2 25.6v-12.8-614.4c0-38.4 25.6-70.4 76.8-70.4H960v672zM217.6 281.6h582.4V211.2H217.6v70.4z m0 249.6h582.4V460.8H217.6v70.4z" fill="" p-id="1058"></path></svg>