<?xml version="1.0" standalone="no"?><!DOCTYPE svg PUBLIC "-//W3C//DTD SVG 1.1//EN" "http://www.w3.org/Graphics/SVG/1.1/DTD/svg11.dtd"><svg t="1533261254976" class="icon" style="" viewBox="0 0 1024 1024" version="1.1" xmlns="http://www.w3.org/2000/svg" p-id="2238" xmlns:xlink="http://www.w3.org/1999/xlink" width="16" height="16"><defs><style type="text/css"></style></defs><path d="M817.408 96.096H207.104a111.072 111.072 0 0 0-110.88 110.88V817.28a111.168 111.168 0 0 0 110.88 110.88h610.304a111.168 111.168 0 0 0 110.88-110.88V206.976a111.168 111.168 0 0 0-110.88-110.88z m-101.248 286.56h-175.904v337.696a29.792 29.792 0 0 1-59.616 0V382.656H307.712a29.792 29.792 0 0 1 0-59.616H716.16a29.76 29.76 0 1 1 0 59.616z" fill="" p-id="2239"></path></svg>