<?xml version="1.0" standalone="no"?><!DOCTYPE svg PUBLIC "-//W3C//DTD SVG 1.1//EN" "http://www.w3.org/Graphics/SVG/1.1/DTD/svg11.dtd"><svg t="1533204938344" class="icon" style="" viewBox="0 0 1024 1024" version="1.1" xmlns="http://www.w3.org/2000/svg" p-id="3079" xmlns:xlink="http://www.w3.org/1999/xlink" width="16" height="16"><defs><style type="text/css"></style></defs><path d="M1020.269619 44.4672a10.22464 10.22464 0 0 0-11.10528-1.09056L5.639219 556.53888a10.3936 10.3936 0 0 0-5.61152 10.07104 10.37824 10.37824 0 0 0 7.18848 9.00096l335.92832 106.7776c3.5328 1.11104 7.35232 0.28672 10.0608-2.18112l464.70144-418.69824-371.03616 439.19872a10.32704 10.32704 0 0 0 4.88448 16.5632l372.74112 113.536c0.96768 0.30208 1.98656 0.45056 2.99008 0.45056a10.37824 10.37824 0 0 0 10.0608-7.90016l186.35264-768.32768a10.32704 10.32704 0 0 0-3.63008-10.56256z m-459.45344 754.35008l-103.01952-31.68768a10.14272 10.14272 0 0 0-9.17504 1.55648 10.3424 10.3424 0 0 0-4.1984 8.32512v194.43712c0 5.7088 4.61824 10.3424 10.32704 10.3424h0.01536c3.54304 0 6.8352-1.81248 8.72448-4.80256l103.02464-162.7392a10.26048 10.26048 0 0 0 0.96256-9.10848 10.23488 10.23488 0 0 0-6.66112-6.3232z" p-id="3080"></path></svg>